<?xml version="1.0" encoding="utf-8"?>
<!DOCTYPE score-partwise  PUBLIC "-//Recordare//DTD MusicXML 3.1 Partwise//EN" "http://www.musicxml.org/dtds/partwise.dtd">
<score-partwise version="3.1">
  <movement-title>Music21 Fragment</movement-title>
  <identification>
    <creator type="composer">Music21</creator>
    <encoding>
      <encoding-date>2025-03-25</encoding-date>
      <software>music21 v.8.3.0</software>
    </encoding>
  </identification>
  <defaults>
    <scaling>
      <millimeters>7</millimeters>
      <tenths>40</tenths>
    </scaling>
  </defaults>
  <part-list>
    <score-part id="P4154d7877c42fbc20f8ced23e21003ee">
      <part-name />
    </score-part>
  </part-list>
  <!--=========================== Part 1 ===========================-->
  <part id="P4154d7877c42fbc20f8ced23e21003ee">
    <!--========================= Measure 41 =========================-->
    <measure number="41">
      <attributes>
        <divisions>10080</divisions>
        <key>
          <fifths>-5</fifths>
        </key>
        <time symbol="common">
          <beats>4</beats>
          <beat-type>4</beat-type>
        </time>
      </attributes>
      <note default-x="18.42" default-y="-40">
        <pitch>
          <step>E</step>
          <octave>5</octave>
        </pitch>
        <duration>1680</duration>
        <type>16th</type>
        <time-modification>
          <actual-notes>3</actual-notes>
          <normal-notes>2</normal-notes>
          <normal-type>16th</normal-type>
        </time-modification>
        <stem>up</stem>
        <beam number="1">begin</beam>
        <beam number="2">begin</beam>
        <notations>
          <tuplet bracket="no" number="1" type="start">
            <tuplet-actual>
              <tuplet-number>3</tuplet-number>
              <tuplet-type>16th</tuplet-type>
            </tuplet-actual>
            <tuplet-normal>
              <tuplet-number>2</tuplet-number>
              <tuplet-type>16th</tuplet-type>
            </tuplet-normal>
          </tuplet>
        </notations>
      </note>
      <note default-x="39.58" default-y="-20">
        <pitch>
          <step>B</step>
          <octave>5</octave>
        </pitch>
        <duration>1680</duration>
        <type>16th</type>
        <time-modification>
          <actual-notes>3</actual-notes>
          <normal-notes>2</normal-notes>
          <normal-type>16th</normal-type>
        </time-modification>
        <stem>up</stem>
        <beam number="1">continue</beam>
        <beam number="2">continue</beam>
      </note>
      <note default-x="60.75" default-y="-30">
        <pitch>
          <step>G</step>
          <alter>1</alter>
          <octave>5</octave>
        </pitch>
        <duration>1680</duration>
        <type>16th</type>
        <time-modification>
          <actual-notes>3</actual-notes>
          <normal-notes>2</normal-notes>
          <normal-type>16th</normal-type>
        </time-modification>
        <stem>up</stem>
        <beam number="1">continue</beam>
        <beam number="2">continue</beam>
        <notations>
          <tuplet number="1" type="stop" />
        </notations>
      </note>
      <note>
        <pitch>
          <step>C</step>
          <alter>1</alter>
          <octave>6</octave>
        </pitch>
        <duration>1680</duration>
        <type>16th</type>
        <time-modification>
          <actual-notes>3</actual-notes>
          <normal-notes>2</normal-notes>
          <normal-type>16th</normal-type>
        </time-modification>
        <notations>
          <tuplet bracket="no" number="1" type="start">
            <tuplet-actual>
              <tuplet-number>3</tuplet-number>
              <tuplet-type>16th</tuplet-type>
            </tuplet-actual>
            <tuplet-normal>
              <tuplet-number>2</tuplet-number>
              <tuplet-type>16th</tuplet-type>
            </tuplet-normal>
          </tuplet>
        </notations>
      </note>
      <note default-x="103.09" default-y="-20">
        <pitch>
          <step>B</step>
          <octave>5</octave>
        </pitch>
        <duration>1680</duration>
        <type>16th</type>
        <time-modification>
          <actual-notes>3</actual-notes>
          <normal-notes>2</normal-notes>
          <normal-type>16th</normal-type>
        </time-modification>
        <stem>up</stem>
        <beam number="1">continue</beam>
        <beam number="2">continue</beam>
      </note>
      <note default-x="124.26" default-y="-30">
        <pitch>
          <step>G</step>
          <alter>1</alter>
          <octave>5</octave>
        </pitch>
        <duration>1680</duration>
        <type>16th</type>
        <time-modification>
          <actual-notes>3</actual-notes>
          <normal-notes>2</normal-notes>
          <normal-type>16th</normal-type>
        </time-modification>
        <stem>up</stem>
        <beam number="1">end</beam>
        <beam number="2">end</beam>
        <notations>
          <tuplet number="1" type="stop" />
        </notations>
      </note>
      <note default-x="145.43" default-y="-40">
        <pitch>
          <step>E</step>
          <octave>5</octave>
        </pitch>
        <duration>1680</duration>
        <type>16th</type>
        <time-modification>
          <actual-notes>3</actual-notes>
          <normal-notes>2</normal-notes>
          <normal-type>16th</normal-type>
        </time-modification>
        <stem>up</stem>
        <beam number="1">begin</beam>
        <beam number="2">begin</beam>
        <notations>
          <tuplet bracket="no" number="1" type="start">
            <tuplet-actual>
              <tuplet-number>3</tuplet-number>
              <tuplet-type>16th</tuplet-type>
            </tuplet-actual>
            <tuplet-normal>
              <tuplet-number>2</tuplet-number>
              <tuplet-type>16th</tuplet-type>
            </tuplet-normal>
          </tuplet>
        </notations>
      </note>
      <note default-x="166.6" default-y="-20">
        <pitch>
          <step>B</step>
          <octave>5</octave>
        </pitch>
        <duration>1680</duration>
        <type>16th</type>
        <time-modification>
          <actual-notes>3</actual-notes>
          <normal-notes>2</normal-notes>
          <normal-type>16th</normal-type>
        </time-modification>
        <stem>up</stem>
        <beam number="1">continue</beam>
        <beam number="2">continue</beam>
      </note>
      <note default-x="187.77" default-y="-30">
        <pitch>
          <step>G</step>
          <alter>1</alter>
          <octave>5</octave>
        </pitch>
        <duration>1680</duration>
        <type>16th</type>
        <time-modification>
          <actual-notes>3</actual-notes>
          <normal-notes>2</normal-notes>
          <normal-type>16th</normal-type>
        </time-modification>
        <stem>up</stem>
        <beam number="1">continue</beam>
        <beam number="2">continue</beam>
        <notations>
          <tuplet number="1" type="stop" />
        </notations>
      </note>
      <note>
        <pitch>
          <step>C</step>
          <alter>1</alter>
          <octave>6</octave>
        </pitch>
        <duration>1680</duration>
        <type>16th</type>
        <time-modification>
          <actual-notes>3</actual-notes>
          <normal-notes>2</normal-notes>
          <normal-type>16th</normal-type>
        </time-modification>
        <notations>
          <tuplet bracket="no" number="1" type="start">
            <tuplet-actual>
              <tuplet-number>3</tuplet-number>
              <tuplet-type>16th</tuplet-type>
            </tuplet-actual>
            <tuplet-normal>
              <tuplet-number>2</tuplet-number>
              <tuplet-type>16th</tuplet-type>
            </tuplet-normal>
          </tuplet>
        </notations>
      </note>
      <note default-x="230.11" default-y="-20">
        <pitch>
          <step>B</step>
          <octave>5</octave>
        </pitch>
        <duration>1680</duration>
        <type>16th</type>
        <time-modification>
          <actual-notes>3</actual-notes>
          <normal-notes>2</normal-notes>
          <normal-type>16th</normal-type>
        </time-modification>
        <stem>up</stem>
        <beam number="1">continue</beam>
        <beam number="2">continue</beam>
      </note>
      <note default-x="251.28" default-y="-30">
        <pitch>
          <step>G</step>
          <alter>1</alter>
          <octave>5</octave>
        </pitch>
        <duration>1680</duration>
        <type>16th</type>
        <time-modification>
          <actual-notes>3</actual-notes>
          <normal-notes>2</normal-notes>
          <normal-type>16th</normal-type>
        </time-modification>
        <stem>up</stem>
        <beam number="1">end</beam>
        <beam number="2">end</beam>
        <notations>
          <tuplet number="1" type="stop" />
        </notations>
      </note>
      <note default-x="316.67" default-y="-40">
        <pitch>
          <step>E</step>
          <octave>5</octave>
        </pitch>
        <duration>1680</duration>
        <type>16th</type>
        <time-modification>
          <actual-notes>3</actual-notes>
          <normal-notes>2</normal-notes>
          <normal-type>16th</normal-type>
        </time-modification>
        <stem>up</stem>
        <beam number="1">begin</beam>
        <beam number="2">begin</beam>
        <notations>
          <tuplet bracket="no" number="1" type="start">
            <tuplet-actual>
              <tuplet-number>3</tuplet-number>
              <tuplet-type>16th</tuplet-type>
            </tuplet-actual>
            <tuplet-normal>
              <tuplet-number>2</tuplet-number>
              <tuplet-type>16th</tuplet-type>
            </tuplet-normal>
          </tuplet>
        </notations>
      </note>
      <note default-x="337.84" default-y="-20">
        <pitch>
          <step>B</step>
          <octave>5</octave>
        </pitch>
        <duration>1680</duration>
        <type>16th</type>
        <time-modification>
          <actual-notes>3</actual-notes>
          <normal-notes>2</normal-notes>
          <normal-type>16th</normal-type>
        </time-modification>
        <stem>up</stem>
        <beam number="1">continue</beam>
        <beam number="2">continue</beam>
      </note>
      <note default-x="359.01" default-y="-30">
        <pitch>
          <step>G</step>
          <alter>1</alter>
          <octave>5</octave>
        </pitch>
        <duration>1680</duration>
        <type>16th</type>
        <time-modification>
          <actual-notes>3</actual-notes>
          <normal-notes>2</normal-notes>
          <normal-type>16th</normal-type>
        </time-modification>
        <stem>up</stem>
        <beam number="1">continue</beam>
        <beam number="2">continue</beam>
        <notations>
          <tuplet number="1" type="stop" />
        </notations>
      </note>
      <note>
        <pitch>
          <step>C</step>
          <alter>1</alter>
          <octave>6</octave>
        </pitch>
        <duration>1680</duration>
        <type>16th</type>
        <time-modification>
          <actual-notes>3</actual-notes>
          <normal-notes>2</normal-notes>
          <normal-type>16th</normal-type>
        </time-modification>
        <notations>
          <tuplet bracket="no" number="1" type="start">
            <tuplet-actual>
              <tuplet-number>3</tuplet-number>
              <tuplet-type>16th</tuplet-type>
            </tuplet-actual>
            <tuplet-normal>
              <tuplet-number>2</tuplet-number>
              <tuplet-type>16th</tuplet-type>
            </tuplet-normal>
          </tuplet>
        </notations>
      </note>
      <note default-x="401.35" default-y="-20">
        <pitch>
          <step>B</step>
          <octave>5</octave>
        </pitch>
        <duration>1680</duration>
        <type>16th</type>
        <time-modification>
          <actual-notes>3</actual-notes>
          <normal-notes>2</normal-notes>
          <normal-type>16th</normal-type>
        </time-modification>
        <stem>up</stem>
        <beam number="1">continue</beam>
        <beam number="2">continue</beam>
      </note>
      <note default-x="422.52" default-y="-30">
        <pitch>
          <step>G</step>
          <alter>1</alter>
          <octave>5</octave>
        </pitch>
        <duration>1680</duration>
        <type>16th</type>
        <time-modification>
          <actual-notes>3</actual-notes>
          <normal-notes>2</normal-notes>
          <normal-type>16th</normal-type>
        </time-modification>
        <stem>up</stem>
        <beam number="1">end</beam>
        <beam number="2">end</beam>
        <notations>
          <tuplet number="1" type="stop" />
        </notations>
      </note>
      <note default-x="443.68" default-y="-40">
        <pitch>
          <step>E</step>
          <octave>5</octave>
        </pitch>
        <duration>1680</duration>
        <type>16th</type>
        <time-modification>
          <actual-notes>3</actual-notes>
          <normal-notes>2</normal-notes>
          <normal-type>16th</normal-type>
        </time-modification>
        <stem>up</stem>
        <beam number="1">begin</beam>
        <beam number="2">begin</beam>
        <notations>
          <tuplet bracket="no" number="1" type="start">
            <tuplet-actual>
              <tuplet-number>3</tuplet-number>
              <tuplet-type>16th</tuplet-type>
            </tuplet-actual>
            <tuplet-normal>
              <tuplet-number>2</tuplet-number>
              <tuplet-type>16th</tuplet-type>
            </tuplet-normal>
          </tuplet>
        </notations>
      </note>
      <note default-x="464.85" default-y="-20">
        <pitch>
          <step>B</step>
          <octave>5</octave>
        </pitch>
        <duration>1680</duration>
        <type>16th</type>
        <time-modification>
          <actual-notes>3</actual-notes>
          <normal-notes>2</normal-notes>
          <normal-type>16th</normal-type>
        </time-modification>
        <stem>up</stem>
        <beam number="1">continue</beam>
        <beam number="2">continue</beam>
      </note>
      <note default-x="486.02" default-y="-30">
        <pitch>
          <step>G</step>
          <alter>1</alter>
          <octave>5</octave>
        </pitch>
        <duration>1680</duration>
        <type>16th</type>
        <time-modification>
          <actual-notes>3</actual-notes>
          <normal-notes>2</normal-notes>
          <normal-type>16th</normal-type>
        </time-modification>
        <stem>up</stem>
        <beam number="1">continue</beam>
        <beam number="2">continue</beam>
        <notations>
          <tuplet number="1" type="stop" />
        </notations>
      </note>
      <note>
        <pitch>
          <step>C</step>
          <alter>1</alter>
          <octave>6</octave>
        </pitch>
        <duration>1260</duration>
        <type>32nd</type>
      </note>
      <note default-x="524.14" default-y="-20">
        <pitch>
          <step>B</step>
          <octave>5</octave>
        </pitch>
        <duration>1260</duration>
        <type>32nd</type>
        <stem>up</stem>
        <beam number="1">continue</beam>
        <beam number="2">continue</beam>
        <beam number="3">continue</beam>
      </note>
      <note default-x="541.09" default-y="-30">
        <pitch>
          <step>G</step>
          <alter>1</alter>
          <octave>5</octave>
        </pitch>
        <duration>1260</duration>
        <type>32nd</type>
        <stem>up</stem>
        <beam number="1">continue</beam>
        <beam number="2">continue</beam>
        <beam number="3">continue</beam>
      </note>
      <note default-x="558.04" default-y="-40">
        <pitch>
          <step>E</step>
          <octave>5</octave>
        </pitch>
        <duration>1260</duration>
        <type>32nd</type>
        <stem>up</stem>
        <beam number="1">end</beam>
        <beam number="2">end</beam>
        <beam number="3">end</beam>
      </note>
    </measure>
    <!--========================= Measure 42 =========================-->
    <measure number="42">
      <note print-object="no" print-spacing="yes">
        <rest measure="yes" />
        <duration>40320</duration>
      </note>
    </measure>
    <!--========================= Measure 43 =========================-->
    <measure number="43">
      <note print-object="no" print-spacing="yes">
        <rest measure="yes" />
        <duration>40320</duration>
      </note>
    </measure>
    <!--========================= Measure 44 =========================-->
    <measure number="44">
      <note print-object="no" print-spacing="yes">
        <rest measure="yes" />
        <duration>40320</duration>
      </note>
    </measure>
    <!--========================= Measure 45 =========================-->
    <measure number="45">
      <attributes>
        <key>
          <fifths>0</fifths>
        </key>
      </attributes>
      <note print-object="no" print-spacing="yes">
        <rest measure="yes" />
        <duration>40320</duration>
      </note>
    </measure>
    <!--========================= Measure 46 =========================-->
    <measure number="46">
      <note>
        <pitch>
          <step>B</step>
          <alter>-1</alter>
          <octave>5</octave>
        </pitch>
        <duration>10080</duration>
        <type>quarter</type>
        <accidental>flat</accidental>
      </note>
      <note>
        <pitch>
          <step>A</step>
          <octave>5</octave>
        </pitch>
        <duration>5040</duration>
        <type>eighth</type>
      </note>
      <note>
        <pitch>
          <step>F</step>
          <alter>1</alter>
          <octave>5</octave>
        </pitch>
        <duration>5040</duration>
        <type>eighth</type>
        <accidental>sharp</accidental>
      </note>
      <note>
        <pitch>
          <step>G</step>
          <octave>5</octave>
        </pitch>
        <duration>5040</duration>
        <type>eighth</type>
      </note>
      <note>
        <pitch>
          <step>E</step>
          <octave>5</octave>
        </pitch>
        <duration>5040</duration>
        <type>eighth</type>
      </note>
      <note>
        <pitch>
          <step>D</step>
          <octave>5</octave>
        </pitch>
        <duration>5040</duration>
        <type>eighth</type>
      </note>
      <note print-object="no" print-spacing="yes">
        <rest />
        <duration>5040</duration>
        <type>eighth</type>
      </note>
    </measure>
    <!--========================= Measure 47 =========================-->
    <measure number="47">
      <note print-object="no" print-spacing="yes">
        <rest measure="yes" />
        <duration>40320</duration>
      </note>
    </measure>
    <!--========================= Measure 48 =========================-->
    <measure number="48">
      <note>
        <pitch>
          <step>C</step>
          <alter>-1</alter>
          <octave>6</octave>
        </pitch>
        <duration>10080</duration>
        <type>quarter</type>
        <accidental>flat</accidental>
      </note>
      <note>
        <pitch>
          <step>B</step>
          <alter>-1</alter>
          <octave>5</octave>
        </pitch>
        <duration>5040</duration>
        <type>eighth</type>
        <accidental>flat</accidental>
      </note>
      <note>
        <pitch>
          <step>G</step>
          <octave>5</octave>
        </pitch>
        <duration>5040</duration>
        <type>eighth</type>
      </note>
      <note>
        <pitch>
          <step>A</step>
          <alter>-1</alter>
          <octave>5</octave>
        </pitch>
        <duration>5040</duration>
        <type>eighth</type>
        <accidental>flat</accidental>
      </note>
      <note>
        <pitch>
          <step>F</step>
          <octave>5</octave>
        </pitch>
        <duration>5040</duration>
        <type>eighth</type>
      </note>
      <note>
        <pitch>
          <step>E</step>
          <alter>-1</alter>
          <octave>5</octave>
        </pitch>
        <duration>5040</duration>
        <type>eighth</type>
        <accidental>flat</accidental>
      </note>
      <note print-object="no" print-spacing="yes">
        <rest />
        <duration>5040</duration>
        <type>eighth</type>
      </note>
    </measure>
    <!--========================= Measure 49 =========================-->
    <measure number="49">
      <note print-object="no" print-spacing="yes">
        <rest measure="yes" />
        <duration>40320</duration>
      </note>
    </measure>
    <!--========================= Measure 50 =========================-->
    <measure number="50">
      <note print-object="no" print-spacing="yes">
        <rest measure="yes" />
        <duration>40320</duration>
      </note>
    </measure>
  </part>
</score-partwise>