<?xml version="1.0" encoding="utf-8"?>
<!DOCTYPE score-partwise  PUBLIC "-//Recordare//DTD MusicXML 3.1 Partwise//EN" "http://www.musicxml.org/dtds/partwise.dtd">
<score-partwise version="3.1">
  <movement-title>Music21 Fragment</movement-title>
  <identification>
    <creator type="composer">Music21</creator>
    <encoding>
      <encoding-date>2025-04-07</encoding-date>
      <software>music21 v.8.3.0</software>
    </encoding>
  </identification>
  <defaults>
    <scaling>
      <millimeters>7</millimeters>
      <tenths>40</tenths>
    </scaling>
  </defaults>
  <part-list>
    <score-part id="P719c5e670f02991cbb26bc1db12cb3bf">
      <part-name />
    </score-part>
  </part-list>
  <!--=========================== Part 1 ===========================-->
  <part id="P719c5e670f02991cbb26bc1db12cb3bf">
    <!--========================= Measure 12 =========================-->
    <measure number="12">
      <attributes>
        <divisions>10080</divisions>
        <key>
          <fifths>-4</fifths>
        </key>
        <time>
          <beats>2</beats>
          <beat-type>4</beat-type>
        </time>
      </attributes>
      <note default-x="93.96" default-y="-30">
        <pitch>
          <step>G</step>
          <octave>4</octave>
        </pitch>
        <duration>8820</duration>
        <type>eighth</type>
        <dot />
        <dot />
        <stem>up</stem>
        <beam number="1">begin</beam>
      </note>
      <note default-x="129.09" default-y="-35">
        <pitch>
          <step>F</step>
          <octave>4</octave>
        </pitch>
        <duration>1260</duration>
        <type>32nd</type>
        <stem>up</stem>
        <beam number="1">end</beam>
        <beam number="2">backward hook</beam>
        <beam number="3">backward hook</beam>
      </note>
      <note default-x="157.62" default-y="-40">
        <pitch>
          <step>E</step>
          <alter>0</alter>
          <octave>4</octave>
        </pitch>
        <duration>5040</duration>
        <type>eighth</type>
        <accidental>natural</accidental>
        <stem>up</stem>
        <beam number="1">begin</beam>
        <notations>
          <articulations>
            <staccatissimo />
            <staccato />
          </articulations>
        </notations>
      </note>
      <note default-x="186.41" default-y="-45">
        <pitch>
          <step>D</step>
          <alter>0</alter>
          <octave>4</octave>
        </pitch>
        <duration>5040</duration>
        <type>eighth</type>
        <accidental>natural</accidental>
        <stem>up</stem>
        <beam number="1">end</beam>
        <notations>
          <articulations>
            <staccatissimo />
            <staccato />
          </articulations>
        </notations>
      </note>
    </measure>
    <!--========================= Measure 13 =========================-->
    <measure number="13">
      <note default-x="12" default-y="-50">
        <pitch>
          <step>C</step>
          <octave>4</octave>
        </pitch>
        <duration>10080</duration>
        <type>quarter</type>
        <stem>up</stem>
      </note>
      <note default-x="89.68" default-y="-50">
        <pitch>
          <step>C</step>
          <octave>4</octave>
        </pitch>
        <duration>1260</duration>
        <type>32nd</type>
        <stem>up</stem>
      </note>
      <note print-object="no" print-spacing="yes">
        <rest />
        <duration>8820</duration>
        <type>eighth</type>
        <dot />
        <dot />
      </note>
    </measure>
    <!--========================= Measure 14 =========================-->
    <measure number="14">
      <note default-x="12" default-y="-50">
        <pitch>
          <step>C</step>
          <octave>4</octave>
        </pitch>
        <duration>5040</duration>
        <type>eighth</type>
        <stem>up</stem>
      </note>
      <note default-x="74.75" default-y="-50">
        <pitch>
          <step>C</step>
          <octave>4</octave>
        </pitch>
        <duration>1260</duration>
        <type>32nd</type>
        <stem>up</stem>
      </note>
      <note default-x="109.54" default-y="-50">
        <pitch>
          <step>C</step>
          <octave>4</octave>
        </pitch>
        <duration>5040</duration>
        <type>eighth</type>
        <stem>up</stem>
      </note>
      <note default-x="172.29" default-y="-50">
        <pitch>
          <step>C</step>
          <octave>4</octave>
        </pitch>
        <duration>1260</duration>
        <type>32nd</type>
        <stem>up</stem>
      </note>
      <note print-object="no" print-spacing="yes">
        <rest />
        <duration>7560</duration>
        <type>eighth</type>
        <dot />
      </note>
    </measure>
    <!--========================= Measure 15 =========================-->
    <measure number="15">
      <note default-x="12" default-y="-50">
        <pitch>
          <step>C</step>
          <octave>4</octave>
        </pitch>
        <duration>5040</duration>
        <type>eighth</type>
        <stem>up</stem>
      </note>
      <note default-x="126.68" default-y="-45">
        <pitch>
          <step>D</step>
          <alter>-1</alter>
          <octave>4</octave>
        </pitch>
        <duration>1260</duration>
        <type>32nd</type>
        <accidental>flat</accidental>
        <stem>up</stem>
      </note>
      <note print-object="no" print-spacing="yes">
        <rest />
        <duration>10080</duration>
        <type>quarter</type>
      </note>
      <note print-object="no" print-spacing="yes">
        <rest />
        <duration>3780</duration>
        <type>16th</type>
        <dot />
      </note>
    </measure>
    <!--========================= Measure 16 =========================-->
    <measure number="16">
      <note default-x="12" default-y="-45">
        <pitch>
          <step>D</step>
          <alter>-1</alter>
          <octave>4</octave>
        </pitch>
        <duration>5040</duration>
        <type>eighth</type>
        <stem>up</stem>
      </note>
      <note default-x="74.75" default-y="-45" dynamics="60.00">
        <pitch>
          <step>D</step>
          <alter>-1</alter>
          <octave>4</octave>
        </pitch>
        <duration>1260</duration>
        <type>32nd</type>
        <stem>up</stem>
      </note>
      <note default-x="101.54" default-y="-45" dynamics="72.22">
        <pitch>
          <step>D</step>
          <alter>-1</alter>
          <octave>4</octave>
        </pitch>
        <duration>5040</duration>
        <type>eighth</type>
        <stem>up</stem>
      </note>
      <note default-x="164.29" default-y="-45" dynamics="83.33">
        <pitch>
          <step>D</step>
          <alter>-1</alter>
          <octave>4</octave>
        </pitch>
        <duration>1260</duration>
        <type>32nd</type>
        <stem>up</stem>
      </note>
      <note print-object="no" print-spacing="yes">
        <rest />
        <duration>7560</duration>
        <type>eighth</type>
        <dot />
      </note>
    </measure>
    <!--========================= Measure 17 =========================-->
    <measure number="17">
      <note default-x="12" default-y="-45" dynamics="95.56">
        <pitch>
          <step>D</step>
          <alter>-1</alter>
          <octave>4</octave>
        </pitch>
        <duration>5040</duration>
        <type>eighth</type>
        <stem>up</stem>
      </note>
      <note default-x="113.41" default-y="-45">
        <pitch>
          <step>D</step>
          <alter>-1</alter>
          <octave>4</octave>
        </pitch>
        <duration>1260</duration>
        <type>32nd</type>
        <stem>up</stem>
      </note>
      <note print-object="no" print-spacing="yes">
        <rest />
        <duration>10080</duration>
        <type>quarter</type>
      </note>
      <note print-object="no" print-spacing="yes">
        <rest />
        <duration>3780</duration>
        <type>16th</type>
        <dot />
      </note>
    </measure>
    <!--========================= Measure 18 =========================-->
    <measure number="18">
      <note default-x="93.96" default-y="-45">
        <pitch>
          <step>D</step>
          <alter>-1</alter>
          <octave>4</octave>
        </pitch>
        <duration>10080</duration>
        <type>quarter</type>
        <stem>up</stem>
      </note>
      <note default-x="520.42" default-y="-55">
        <pitch>
          <step>B</step>
          <alter>-1</alter>
          <octave>3</octave>
        </pitch>
        <duration>5040</duration>
        <type>eighth</type>
        <stem>up</stem>
        <beam number="1">begin</beam>
        <notations>
          <articulations>
            <staccatissimo />
            <staccato />
          </articulations>
        </notations>
      </note>
      <note default-x="786.96" default-y="-65">
        <pitch>
          <step>G</step>
          <octave>3</octave>
        </pitch>
        <duration>5040</duration>
        <type>eighth</type>
        <stem>up</stem>
        <beam number="1">end</beam>
        <notations>
          <articulations>
            <staccatissimo />
            <staccato />
          </articulations>
        </notations>
      </note>
    </measure>
    <!--========================= Measure 19 =========================-->
    <measure number="19">
      <note default-x="93.96" default-y="-15" dynamics="116.67">
        <pitch>
          <step>E</step>
          <alter>-1</alter>
          <octave>3</octave>
        </pitch>
        <duration>15120</duration>
        <type>quarter</type>
        <dot />
        <stem>down</stem>
        <notations>
          <fermata type="upright" />
        </notations>
      </note>
      <note default-x="146.72" default-y="-15">
        <pitch>
          <step>E</step>
          <alter>-1</alter>
          <octave>3</octave>
        </pitch>
        <duration>1008</duration>
        <type>32nd</type>
        <time-modification>
          <actual-notes>5</actual-notes>
          <normal-notes>4</normal-notes>
          <normal-type>32nd</normal-type>
        </time-modification>
        <stem>down</stem>
        <beam number="1">begin</beam>
        <beam number="2">begin</beam>
        <beam number="3">begin</beam>
        <notations>
          <tuplet bracket="no" number="1" type="start">
            <tuplet-actual>
              <tuplet-number>5</tuplet-number>
              <tuplet-type>32nd</tuplet-type>
            </tuplet-actual>
            <tuplet-normal>
              <tuplet-number>4</tuplet-number>
              <tuplet-type>32nd</tuplet-type>
            </tuplet-normal>
          </tuplet>
        </notations>
      </note>
      <note default-x="163.89" default-y="-10">
        <pitch>
          <step>F</step>
          <octave>3</octave>
        </pitch>
        <duration>1008</duration>
        <type>32nd</type>
        <time-modification>
          <actual-notes>5</actual-notes>
          <normal-notes>4</normal-notes>
          <normal-type>32nd</normal-type>
        </time-modification>
        <stem>down</stem>
        <beam number="1">continue</beam>
        <beam number="2">continue</beam>
        <beam number="3">continue</beam>
      </note>
      <note default-x="181.05" default-y="-5">
        <pitch>
          <step>G</step>
          <octave>3</octave>
        </pitch>
        <duration>1008</duration>
        <type>32nd</type>
        <time-modification>
          <actual-notes>5</actual-notes>
          <normal-notes>4</normal-notes>
          <normal-type>32nd</normal-type>
        </time-modification>
        <stem>down</stem>
        <beam number="1">continue</beam>
        <beam number="2">continue</beam>
        <beam number="3">continue</beam>
      </note>
      <note default-x="198.22" default-y="0">
        <pitch>
          <step>A</step>
          <alter>-1</alter>
          <octave>3</octave>
        </pitch>
        <duration>1008</duration>
        <type>32nd</type>
        <time-modification>
          <actual-notes>5</actual-notes>
          <normal-notes>4</normal-notes>
          <normal-type>32nd</normal-type>
        </time-modification>
        <stem>down</stem>
        <beam number="1">continue</beam>
        <beam number="2">continue</beam>
        <beam number="3">continue</beam>
      </note>
      <note default-x="215.38" default-y="5">
        <pitch>
          <step>B</step>
          <alter>-1</alter>
          <octave>3</octave>
        </pitch>
        <duration>1008</duration>
        <type>32nd</type>
        <time-modification>
          <actual-notes>5</actual-notes>
          <normal-notes>4</normal-notes>
          <normal-type>32nd</normal-type>
        </time-modification>
        <stem>down</stem>
        <beam number="1">end</beam>
        <beam number="2">end</beam>
        <beam number="3">end</beam>
        <notations>
          <tuplet number="1" type="stop" />
        </notations>
      </note>
    </measure>
    <!--========================= Measure 20 =========================-->
    <measure number="20">
      <note default-x="13" default-y="10">
        <pitch>
          <step>C</step>
          <octave>4</octave>
        </pitch>
        <duration>15120</duration>
        <type>quarter</type>
        <dot />
        <stem>down</stem>
      </note>
      <note>
        <pitch>
          <step>E</step>
          <alter>-1</alter>
          <octave>3</octave>
        </pitch>
        <duration>5040</duration>
        <type>eighth</type>
      </note>
    </measure>
  </part>
</score-partwise>