<?xml version="1.0" encoding="utf-8"?>
<!DOCTYPE score-partwise  PUBLIC "-//Recordare//DTD MusicXML 3.1 Partwise//EN" "http://www.musicxml.org/dtds/partwise.dtd">
<score-partwise version="3.1">
  <movement-title>Music21 Fragment</movement-title>
  <identification>
    <creator type="composer">Music21</creator>
    <encoding>
      <encoding-date>2025-03-25</encoding-date>
      <software>music21 v.8.3.0</software>
    </encoding>
  </identification>
  <defaults>
    <scaling>
      <millimeters>7</millimeters>
      <tenths>40</tenths>
    </scaling>
  </defaults>
  <part-list>
    <score-part id="Pa1ad59fdae582723ec6352258152271b">
      <part-name />
    </score-part>
  </part-list>
  <!--=========================== Part 1 ===========================-->
  <part id="Pa1ad59fdae582723ec6352258152271b">
    <!--======================== Measure 331 =========================-->
    <measure number="331">
      <attributes>
        <divisions>10080</divisions>
        <key>
          <fifths>4</fifths>
        </key>
        <time>
          <beats>3</beats>
          <beat-type>4</beat-type>
        </time>
      </attributes>
      <note>
        <pitch>
          <step>F</step>
          <alter>1</alter>
          <octave>3</octave>
        </pitch>
        <duration>10080</duration>
        <type>quarter</type>
        <accidental>sharp</accidental>
      </note>
      <note print-object="no" print-spacing="yes">
        <rest />
        <duration>20160</duration>
        <type>half</type>
      </note>
    </measure>
    <!--======================== Measure 332 =========================-->
    <measure number="332">
      <note>
        <pitch>
          <step>B</step>
          <alter>0</alter>
          <octave>3</octave>
        </pitch>
        <duration>30240</duration>
        <type>half</type>
        <dot />
        <accidental>natural</accidental>
      </note>
    </measure>
    <!--======================== Measure 333 =========================-->
    <measure number="333">
      <note>
        <pitch>
          <step>F</step>
          <alter>0</alter>
          <octave>3</octave>
        </pitch>
        <duration>30240</duration>
        <type>half</type>
        <dot />
        <accidental>natural</accidental>
      </note>
    </measure>
    <!--======================== Measure 334 =========================-->
    <measure number="334">
      <note>
        <pitch>
          <step>F</step>
          <octave>3</octave>
        </pitch>
        <duration>15120</duration>
        <type>quarter</type>
        <dot />
      </note>
      <note>
        <pitch>
          <step>F</step>
          <octave>3</octave>
        </pitch>
        <duration>5040</duration>
        <type>eighth</type>
      </note>
      <note>
        <pitch>
          <step>F</step>
          <octave>3</octave>
        </pitch>
        <duration>10080</duration>
        <type>quarter</type>
      </note>
    </measure>
    <!--======================== Measure 335 =========================-->
    <measure number="335">
      <note>
        <pitch>
          <step>E</step>
          <alter>0</alter>
          <octave>3</octave>
        </pitch>
        <duration>10080</duration>
        <type>quarter</type>
        <accidental>natural</accidental>
      </note>
      <note print-object="no" print-spacing="yes">
        <rest />
        <duration>20160</duration>
        <type>half</type>
      </note>
    </measure>
    <!--======================== Measure 336 =========================-->
    <measure number="336">
      <attributes>
        <key>
          <fifths>4</fifths>
        </key>
      </attributes>
      <note default-x="112.07" default-y="-75">
        <pitch>
          <step>E</step>
          <octave>3</octave>
        </pitch>
        <duration>5040</duration>
        <type>eighth</type>
        <stem>up</stem>
        <beam number="1">begin</beam>
        <notations>
          <technical>
            <fingering alternate="no" substitution="no">1</fingering>
          </technical>
        </notations>
      </note>
      <note default-x="145.15" default-y="-60">
        <pitch>
          <step>A</step>
          <alter>1</alter>
          <octave>3</octave>
        </pitch>
        <duration>5040</duration>
        <type>eighth</type>
        <accidental>sharp</accidental>
        <stem>up</stem>
        <beam number="1">continue</beam>
        <notations>
          <technical>
            <fingering alternate="no" substitution="no">2</fingering>
          </technical>
        </notations>
      </note>
      <note default-x="178.23" default-y="-55">
        <pitch>
          <step>B</step>
          <alter>1</alter>
          <octave>3</octave>
        </pitch>
        <duration>5040</duration>
        <type>eighth</type>
        <accidental>sharp</accidental>
        <stem>up</stem>
        <beam number="1">continue</beam>
        <notations>
          <technical>
            <fingering alternate="no" substitution="no">3</fingering>
          </technical>
        </notations>
      </note>
      <note default-x="207.32" default-y="-45">
        <pitch>
          <step>D</step>
          <alter>1</alter>
          <octave>4</octave>
        </pitch>
        <duration>5040</duration>
        <type>eighth</type>
        <stem>up</stem>
        <beam number="1">continue</beam>
        <notations>
          <technical>
            <fingering alternate="no" substitution="no">5</fingering>
          </technical>
        </notations>
      </note>
      <note default-x="236.4" default-y="-50">
        <pitch>
          <step>C</step>
          <alter>1</alter>
          <octave>4</octave>
        </pitch>
        <duration>5040</duration>
        <type>eighth</type>
        <stem>up</stem>
        <beam number="1">continue</beam>
        <notations>
          <technical>
            <fingering alternate="no" substitution="no">4</fingering>
          </technical>
        </notations>
      </note>
      <note default-x="265.49" default-y="-40">
        <pitch>
          <step>E</step>
          <octave>4</octave>
        </pitch>
        <duration>5040</duration>
        <type>eighth</type>
        <stem>up</stem>
        <beam number="1">end</beam>
        <notations>
          <technical>
            <fingering alternate="no" substitution="no">1</fingering>
          </technical>
        </notations>
      </note>
    </measure>
    <!--======================== Measure 337 =========================-->
    <measure number="337">
      <note default-x="58.84" default-y="-25">
        <pitch>
          <step>A</step>
          <alter>1</alter>
          <octave>4</octave>
        </pitch>
        <duration>5040</duration>
        <type>eighth</type>
        <accidental>sharp</accidental>
        <stem>down</stem>
        <beam number="1">begin</beam>
        <notations>
          <technical>
            <fingering alternate="no" substitution="no">2</fingering>
          </technical>
        </notations>
      </note>
      <note default-x="89.92" default-y="-20">
        <pitch>
          <step>B</step>
          <alter>1</alter>
          <octave>4</octave>
        </pitch>
        <duration>5040</duration>
        <type>eighth</type>
        <accidental>sharp</accidental>
        <stem>down</stem>
        <beam number="1">continue</beam>
        <notations>
          <technical>
            <fingering alternate="no" substitution="no">3</fingering>
          </technical>
        </notations>
      </note>
      <note default-x="119.41" default-y="-10">
        <pitch>
          <step>D</step>
          <alter>1</alter>
          <octave>5</octave>
        </pitch>
        <duration>5040</duration>
        <type>eighth</type>
        <stem>down</stem>
        <beam number="1">continue</beam>
        <notations>
          <technical>
            <fingering alternate="no" substitution="no">5</fingering>
          </technical>
        </notations>
      </note>
      <note default-x="148.89" default-y="-15">
        <pitch>
          <step>C</step>
          <alter>1</alter>
          <octave>5</octave>
        </pitch>
        <duration>5040</duration>
        <type>eighth</type>
        <stem>down</stem>
        <beam number="1">continue</beam>
        <notations>
          <technical>
            <fingering alternate="no" substitution="no">4</fingering>
          </technical>
        </notations>
      </note>
      <note default-x="178.38" default-y="-5">
        <pitch>
          <step>E</step>
          <octave>5</octave>
        </pitch>
        <duration>5040</duration>
        <type>eighth</type>
        <stem>down</stem>
        <beam number="1">continue</beam>
        <notations>
          <technical>
            <fingering alternate="no" substitution="no">1</fingering>
          </technical>
        </notations>
      </note>
      <note default-x="211.46" default-y="10">
        <pitch>
          <step>A</step>
          <alter>1</alter>
          <octave>5</octave>
        </pitch>
        <duration>5040</duration>
        <type>eighth</type>
        <accidental>sharp</accidental>
        <stem>down</stem>
        <beam number="1">end</beam>
      </note>
    </measure>
    <!--======================== Measure 338 =========================-->
    <measure number="338">
      <note default-x="18.42" default-y="-20">
        <pitch>
          <step>B</step>
          <alter>1</alter>
          <octave>5</octave>
        </pitch>
        <duration>5040</duration>
        <type>eighth</type>
        <accidental>sharp</accidental>
        <stem>down</stem>
        <beam number="1">begin</beam>
        <notations>
          <technical>
            <fingering alternate="no" substitution="no">2</fingering>
          </technical>
        </notations>
      </note>
      <note default-x="47.9" default-y="-10">
        <pitch>
          <step>D</step>
          <alter>1</alter>
          <octave>6</octave>
        </pitch>
        <duration>5040</duration>
        <type>eighth</type>
        <stem>down</stem>
        <beam number="1">continue</beam>
        <notations>
          <technical>
            <fingering alternate="no" substitution="no">5</fingering>
          </technical>
        </notations>
      </note>
      <note default-x="77.39" default-y="-15">
        <pitch>
          <step>C</step>
          <alter>1</alter>
          <octave>6</octave>
        </pitch>
        <duration>5040</duration>
        <type>eighth</type>
        <stem>down</stem>
        <beam number="1">continue</beam>
        <notations>
          <technical>
            <fingering alternate="no" substitution="no">4</fingering>
          </technical>
        </notations>
      </note>
      <note default-x="106.87" default-y="-5">
        <pitch>
          <step>E</step>
          <octave>6</octave>
        </pitch>
        <duration>5040</duration>
        <type>eighth</type>
        <stem>down</stem>
        <beam number="1">continue</beam>
        <notations>
          <technical>
            <fingering alternate="no" substitution="no">1</fingering>
          </technical>
        </notations>
      </note>
      <note default-x="139.95" default-y="10">
        <pitch>
          <step>A</step>
          <alter>1</alter>
          <octave>6</octave>
        </pitch>
        <duration>5040</duration>
        <type>eighth</type>
        <accidental>sharp</accidental>
        <stem>down</stem>
        <beam number="1">continue</beam>
        <notations>
          <technical>
            <fingering alternate="no" substitution="no">2</fingering>
          </technical>
        </notations>
      </note>
      <note default-x="173.03" default-y="15">
        <pitch>
          <step>B</step>
          <alter>1</alter>
          <octave>6</octave>
        </pitch>
        <duration>5040</duration>
        <type>eighth</type>
        <accidental>sharp</accidental>
        <stem>down</stem>
        <beam number="1">end</beam>
        <notations>
          <technical>
            <fingering alternate="no" substitution="no">3</fingering>
          </technical>
        </notations>
      </note>
    </measure>
    <!--======================== Measure 339 =========================-->
    <measure number="339">
      <note default-x="19.8" default-y="20">
        <pitch>
          <step>C</step>
          <alter>1</alter>
          <octave>7</octave>
        </pitch>
        <duration>10080</duration>
        <type>quarter</type>
        <stem>down</stem>
        <notations>
          <technical>
            <fingering alternate="no" substitution="no">4</fingering>
          </technical>
        </notations>
      </note>
      <note print-object="no" print-spacing="yes">
        <rest />
        <duration>20160</duration>
        <type>half</type>
      </note>
    </measure>
    <!--======================== Measure 340 =========================-->
    <measure number="340">
      <note>
        <pitch>
          <step>E</step>
          <octave>3</octave>
        </pitch>
        <duration>30240</duration>
        <type>half</type>
        <dot />
      </note>
    </measure>
  </part>
</score-partwise>