<?xml version="1.0" encoding="utf-8"?>
<!DOCTYPE score-partwise  PUBLIC "-//Recordare//DTD MusicXML 3.1 Partwise//EN" "http://www.musicxml.org/dtds/partwise.dtd">
<score-partwise version="3.1">
  <movement-title>Music21 Fragment</movement-title>
  <identification>
    <creator type="composer">Music21</creator>
    <encoding>
      <encoding-date>2025-03-25</encoding-date>
      <software>music21 v.8.3.0</software>
    </encoding>
  </identification>
  <defaults>
    <scaling>
      <millimeters>7</millimeters>
      <tenths>40</tenths>
    </scaling>
  </defaults>
  <part-list>
    <score-part id="Pbabe029f50787c66bf5acd6e393a4618">
      <part-name />
    </score-part>
  </part-list>
  <!--=========================== Part 1 ===========================-->
  <part id="Pbabe029f50787c66bf5acd6e393a4618">
    <!--========================= Measure 31 =========================-->
    <measure number="31">
      <attributes>
        <divisions>10080</divisions>
        <key>
          <fifths>0</fifths>
        </key>
        <time>
          <beats>4</beats>
          <beat-type>4</beat-type>
        </time>
      </attributes>
      <note default-x="162.52" default-y="-20" dynamics="96.67">
        <pitch>
          <step>B</step>
          <octave>4</octave>
        </pitch>
        <duration>5040</duration>
        <type>eighth</type>
        <stem>up</stem>
        <beam number="1">begin</beam>
        <notations>
          <articulations>
            <staccatissimo />
            <staccato />
          </articulations>
        </notations>
      </note>
      <note default-x="200.15" default-y="-55" dynamics="94.44">
        <pitch>
          <step>B</step>
          <octave>3</octave>
        </pitch>
        <duration>5040</duration>
        <type>eighth</type>
        <stem>up</stem>
        <beam number="1">continue</beam>
        <notations>
          <articulations>
            <staccatissimo />
            <staccato />
          </articulations>
        </notations>
      </note>
      <note default-x="237.78" default-y="-15" dynamics="92.22">
        <pitch>
          <step>C</step>
          <alter>1</alter>
          <octave>5</octave>
        </pitch>
        <duration>5040</duration>
        <type>eighth</type>
        <accidental>sharp</accidental>
        <stem>up</stem>
        <beam number="1">continue</beam>
        <notations>
          <articulations>
            <staccatissimo />
            <staccato />
          </articulations>
        </notations>
      </note>
      <note default-x="275.41" default-y="-50" dynamics="90.00">
        <pitch>
          <step>C</step>
          <alter>1</alter>
          <octave>4</octave>
        </pitch>
        <duration>5040</duration>
        <type>eighth</type>
        <accidental>sharp</accidental>
        <stem>up</stem>
        <beam number="1">end</beam>
        <notations>
          <articulations>
            <staccatissimo />
            <staccato />
          </articulations>
        </notations>
      </note>
      <note print-object="no" print-spacing="yes">
        <rest />
        <duration>20160</duration>
        <type>half</type>
      </note>
    </measure>
    <!--========================= Measure 32 =========================-->
    <measure number="32">
      <note default-x="20.42" default-y="-10" dynamics="86.67">
        <pitch>
          <step>D</step>
          <alter>1</alter>
          <octave>5</octave>
        </pitch>
        <duration>5040</duration>
        <type>eighth</type>
        <accidental>sharp</accidental>
        <stem>up</stem>
        <beam number="1">begin</beam>
        <notations>
          <articulations>
            <staccatissimo />
            <staccato />
          </articulations>
        </notations>
      </note>
      <note default-x="53" default-y="-45" dynamics="83.33">
        <pitch>
          <step>D</step>
          <alter>1</alter>
          <octave>4</octave>
        </pitch>
        <duration>5040</duration>
        <type>eighth</type>
        <accidental>sharp</accidental>
        <stem>up</stem>
        <beam number="1">end</beam>
        <notations>
          <articulations>
            <staccatissimo />
            <staccato />
          </articulations>
        </notations>
      </note>
      <note default-x="143.39" default-y="-10" dynamics="73.33">
        <pitch>
          <step>D</step>
          <alter>1</alter>
          <octave>5</octave>
        </pitch>
        <duration>5040</duration>
        <type>eighth</type>
        <stem>up</stem>
        <beam number="1">begin</beam>
        <notations>
          <articulations>
            <staccatissimo />
            <staccato />
          </articulations>
        </notations>
      </note>
      <note default-x="175.97" default-y="-45" dynamics="66.67">
        <pitch>
          <step>D</step>
          <alter>1</alter>
          <octave>4</octave>
        </pitch>
        <duration>5040</duration>
        <type>eighth</type>
        <stem>up</stem>
        <beam number="1">continue</beam>
        <notations>
          <articulations>
            <staccatissimo />
            <staccato />
          </articulations>
        </notations>
      </note>
      <note default-x="204.87" default-y="-5" dynamics="63.33">
        <pitch>
          <step>E</step>
          <octave>5</octave>
        </pitch>
        <duration>5040</duration>
        <type>eighth</type>
        <stem>up</stem>
        <beam number="1">continue</beam>
        <notations>
          <articulations>
            <staccatissimo />
            <staccato />
          </articulations>
        </notations>
      </note>
      <note default-x="233.78" default-y="-40" dynamics="58.89">
        <pitch>
          <step>E</step>
          <octave>4</octave>
        </pitch>
        <duration>5040</duration>
        <type>eighth</type>
        <stem>up</stem>
        <beam number="1">end</beam>
        <notations>
          <articulations>
            <staccatissimo />
            <staccato />
          </articulations>
        </notations>
      </note>
      <note print-object="no" print-spacing="yes">
        <rest />
        <duration>10080</duration>
        <type>quarter</type>
      </note>
    </measure>
    <!--========================= Measure 33 =========================-->
    <measure number="33">
      <note default-x="64.69" default-y="0">
        <pitch>
          <step>F</step>
          <alter>1</alter>
          <octave>5</octave>
        </pitch>
        <duration>5040</duration>
        <type>eighth</type>
        <accidental>sharp</accidental>
        <stem>down</stem>
        <beam number="1">begin</beam>
        <notations>
          <articulations>
            <staccatissimo />
            <staccato />
          </articulations>
        </notations>
      </note>
      <note default-x="97.27" default-y="-35">
        <pitch>
          <step>F</step>
          <alter>1</alter>
          <octave>4</octave>
        </pitch>
        <duration>5040</duration>
        <type>eighth</type>
        <accidental>sharp</accidental>
        <stem>down</stem>
        <beam number="1">continue</beam>
        <notations>
          <articulations>
            <staccatissimo />
            <staccato />
          </articulations>
        </notations>
      </note>
      <note default-x="129.85" default-y="5">
        <pitch>
          <step>G</step>
          <alter>1</alter>
          <octave>5</octave>
        </pitch>
        <duration>5040</duration>
        <type>eighth</type>
        <accidental>sharp</accidental>
        <stem>down</stem>
        <beam number="1">continue</beam>
        <notations>
          <articulations>
            <staccatissimo />
            <staccato />
          </articulations>
        </notations>
      </note>
      <note default-x="162.43" default-y="-30">
        <pitch>
          <step>G</step>
          <alter>1</alter>
          <octave>4</octave>
        </pitch>
        <duration>5040</duration>
        <type>eighth</type>
        <accidental>sharp</accidental>
        <stem>down</stem>
        <beam number="1">end</beam>
        <notations>
          <articulations>
            <staccatissimo />
            <staccato />
          </articulations>
        </notations>
      </note>
      <note default-x="184.07" default-y="10">
        <pitch>
          <step>A</step>
          <octave>5</octave>
        </pitch>
        <duration>5040</duration>
        <type>eighth</type>
        <stem>down</stem>
        <beam number="1">begin</beam>
        <notations>
          <articulations>
            <staccatissimo />
            <staccato />
          </articulations>
        </notations>
      </note>
      <note default-x="216.65" default-y="-25">
        <pitch>
          <step>A</step>
          <octave>4</octave>
        </pitch>
        <duration>5040</duration>
        <type>eighth</type>
        <stem>down</stem>
        <beam number="1">continue</beam>
        <notations>
          <articulations>
            <staccatissimo />
            <staccato />
          </articulations>
        </notations>
      </note>
      <note default-x="249.23" default-y="10">
        <pitch>
          <step>A</step>
          <octave>5</octave>
        </pitch>
        <duration>5040</duration>
        <type>eighth</type>
        <stem>down</stem>
        <beam number="1">continue</beam>
        <notations>
          <articulations>
            <staccatissimo />
            <staccato />
          </articulations>
        </notations>
      </note>
      <note default-x="281.81" default-y="-20">
        <pitch>
          <step>B</step>
          <octave>4</octave>
        </pitch>
        <duration>5040</duration>
        <type>eighth</type>
        <stem>down</stem>
        <beam number="1">end</beam>
        <notations>
          <articulations>
            <staccatissimo />
            <staccato />
          </articulations>
        </notations>
      </note>
    </measure>
    <!--========================= Measure 34 =========================-->
    <measure number="34">
      <note default-x="12" default-y="10">
        <pitch>
          <step>A</step>
          <octave>5</octave>
        </pitch>
        <duration>5040</duration>
        <type>eighth</type>
        <stem>down</stem>
        <beam number="1">begin</beam>
        <notations>
          <articulations>
            <staccatissimo />
            <staccato />
          </articulations>
        </notations>
      </note>
      <note default-x="44.58" default-y="-15">
        <pitch>
          <step>C</step>
          <alter>1</alter>
          <octave>5</octave>
        </pitch>
        <duration>5040</duration>
        <type>eighth</type>
        <accidental>sharp</accidental>
        <stem>down</stem>
        <beam number="1">continue</beam>
        <notations>
          <articulations>
            <staccatissimo />
            <staccato />
          </articulations>
        </notations>
      </note>
      <note default-x="72.16" default-y="10">
        <pitch>
          <step>A</step>
          <octave>5</octave>
        </pitch>
        <duration>5040</duration>
        <type>eighth</type>
        <stem>down</stem>
        <beam number="1">continue</beam>
        <notations>
          <articulations>
            <staccatissimo />
            <staccato />
          </articulations>
        </notations>
      </note>
      <note default-x="104.75" default-y="-10">
        <pitch>
          <step>D</step>
          <alter>1</alter>
          <octave>5</octave>
        </pitch>
        <duration>5040</duration>
        <type>eighth</type>
        <accidental>sharp</accidental>
        <stem>down</stem>
        <beam number="1">end</beam>
        <notations>
          <articulations>
            <staccatissimo />
            <staccato />
          </articulations>
        </notations>
      </note>
      <note default-x="137.33" default-y="10">
        <pitch>
          <step>A</step>
          <octave>5</octave>
        </pitch>
        <duration>5040</duration>
        <type>eighth</type>
        <stem>down</stem>
        <beam number="1">begin</beam>
        <notations>
          <articulations>
            <staccatissimo />
            <staccato />
          </articulations>
        </notations>
      </note>
      <note default-x="171.91" default-y="-5">
        <pitch>
          <step>E</step>
          <octave>5</octave>
        </pitch>
        <duration>5040</duration>
        <type>eighth</type>
        <stem>down</stem>
        <beam number="1">continue</beam>
        <notations>
          <articulations>
            <staccatissimo />
            <staccato />
          </articulations>
        </notations>
      </note>
      <note default-x="204.49" default-y="10">
        <pitch>
          <step>A</step>
          <octave>5</octave>
        </pitch>
        <duration>5040</duration>
        <type>eighth</type>
        <stem>down</stem>
        <beam number="1">continue</beam>
        <notations>
          <articulations>
            <staccatissimo />
            <staccato />
          </articulations>
        </notations>
      </note>
      <note default-x="239.07" default-y="0">
        <pitch>
          <step>F</step>
          <alter>1</alter>
          <octave>5</octave>
        </pitch>
        <duration>5040</duration>
        <type>eighth</type>
        <accidental>sharp</accidental>
        <stem>down</stem>
        <beam number="1">end</beam>
        <notations>
          <articulations>
            <staccatissimo />
            <staccato />
          </articulations>
        </notations>
      </note>
    </measure>
    <!--========================= Measure 35 =========================-->
    <measure number="35">
      <note print-object="no" print-spacing="yes">
        <rest measure="yes" />
        <duration>40320</duration>
      </note>
    </measure>
    <!--========================= Measure 36 =========================-->
    <measure number="36">
      <note print-object="no" print-spacing="yes">
        <rest measure="yes" />
        <duration>40320</duration>
      </note>
    </measure>
    <!--========================= Measure 37 =========================-->
    <measure number="37">
      <note print-object="no" print-spacing="yes">
        <rest measure="yes" />
        <duration>40320</duration>
      </note>
    </measure>
    <!--========================= Measure 38 =========================-->
    <measure number="38">
      <note print-object="no" print-spacing="yes">
        <rest measure="yes" />
        <duration>40320</duration>
      </note>
    </measure>
    <!--========================= Measure 39 =========================-->
    <measure number="39">
      <note>
        <pitch>
          <step>B</step>
          <octave>3</octave>
        </pitch>
        <duration>20160</duration>
        <type>half</type>
      </note>
      <note>
        <pitch>
          <step>A</step>
          <octave>3</octave>
        </pitch>
        <duration>10080</duration>
        <type>quarter</type>
      </note>
      <note>
        <pitch>
          <step>G</step>
          <alter>1</alter>
          <octave>3</octave>
        </pitch>
        <duration>10080</duration>
        <type>quarter</type>
        <accidental>sharp</accidental>
      </note>
    </measure>
    <!--========================= Measure 40 =========================-->
    <measure number="40">
      <note>
        <pitch>
          <step>F</step>
          <alter>1</alter>
          <octave>3</octave>
        </pitch>
        <duration>20160</duration>
        <type>half</type>
        <accidental>sharp</accidental>
      </note>
      <note>
        <pitch>
          <step>E</step>
          <octave>3</octave>
        </pitch>
        <duration>20160</duration>
        <type>half</type>
      </note>
    </measure>
  </part>
</score-partwise>